<svg width="52" height="52" viewBox="0 0 52 52" fill="none" xmlns="http://www.w3.org/2000/svg">
<path d="M19.175 33.9083L38.4583 28.8167C39 28.6722 39.4063 28.3382 39.6771 27.8146C39.9479 27.291 40.0111 26.7583 39.8667 26.2167C39.7222 25.675 39.4063 25.2688 38.9188 24.9979C38.4313 24.7271 37.9167 24.6639 37.375 24.8083L32.0667 26.2167L23.4 18.0917L20.3667 18.85L25.5667 27.95L20.3667 29.25L17.6583 27.1917L15.6 27.7333L19.175 33.9083ZM43.3333 43.3333H8.66667C7.475 43.3333 6.45486 42.909 5.60625 42.0604C4.75764 41.2118 4.33334 40.1917 4.33334 39V30.3333C5.525 30.3333 6.54514 29.909 7.39375 29.0604C8.24236 28.2118 8.66667 27.1917 8.66667 26C8.66667 24.8083 8.24236 23.7882 7.39375 22.9396C6.54514 22.091 5.525 21.6667 4.33334 21.6667V13C4.33334 11.8083 4.75764 10.7882 5.60625 9.93958C6.45486 9.09097 7.475 8.66667 8.66667 8.66667H43.3333C44.525 8.66667 45.5451 9.09097 46.3938 9.93958C47.2424 10.7882 47.6667 11.8083 47.6667 13V39C47.6667 40.1917 47.2424 41.2118 46.3938 42.0604C45.5451 42.909 44.525 43.3333 43.3333 43.3333ZM43.3333 39V13H8.66667V18.525C10.0028 19.3194 11.059 20.3757 11.8354 21.6938C12.6118 23.0118 13 24.4472 13 26C13 27.5528 12.6118 28.9882 11.8354 30.3063C11.059 31.6243 10.0028 32.6806 8.66667 33.475V39H43.3333Z" fill="#606C38"/>
</svg>
